#!OML:ASF H:\Dans Jumps\Project 1\Capture day 1\Session 1\subject.ASF
:FULLY-SPECIFIED
:DEGREES
143
root 0.484374 17.5051 -14.3421 6.4792 -0.29996 -1.98617
lowerback -1.42053 -0.668642 0.429211
upperback 4.97477 -1.00262 1.69533
thorax 5.9753 -0.522708 1.4544
lowerneck -11.3498 0.586318 -2.32546
upperneck 35.424 1.2041 0.730075
head 13.9146 0.300513 0.883092
rclavicle 6.60959e-015 -1.39149e-015
rhumerus -18.276 -16.312 -82.9165
rradius 25.8167
rwrist 31.9763
rhand -18.1831 -26.7643
rfingers 7.12502
rthumb 8.09365 -56.5894
lclavicle 6.60959e-015 -1.39149e-015
lhumerus -15.7915 -0.715949 88.209
lradius 18.6693
lwrist -0.117809
lhand -23.5519 -3.3403
lfingers 7.12502
lthumb 2.91014 26.6196
rfemur -14.0863 -2.35999 19.1395
rtibia 21.5354
rfoot -13.1868 -2.25513
rtoes 4.99266
lfemur -14.3547 7.83858 -17.3209
ltibia 20.4466
lfoot -10.6657 4.84491
ltoes -12.5373
144
root 0.483637 17.504 -14.3456 6.48468 -0.28197 -1.97797
lowerback -1.39568 -0.672014 0.422957
upperback 4.96616 -1.00633 1.69632
thorax 5.95211 -0.524825 1.45894
lowerneck -11.3683 0.589621 -2.31736
upperneck 35.3675 1.21329 0.712781
head 13.8932 0.304021 0.875636
rclavicle -1.2424e-015 -1.49089e-014
rhumerus -18.2861 -16.3019 -82.9094
rradius 25.8055
rwrist 31.987
rhand -18.1762 -26.7546
rfingers 7.12502
rthumb 8.10026 -56.5794
lclavicle -1.2424e-015 -1.49089e-014
lhumerus -15.8067 -0.720939 88.193
lradius 18.6603
lwrist -0.132019
lhand -23.5569 -3.34175
lfingers 7.12502
lthumb 2.90524 26.6182
rfemur -14.1234 -2.34398 19.1323
rtibia 21.5789
rfoot -13.2044 -2.28667
rtoes 4.98088
lfemur -14.3976 7.8311 -17.3295
ltibia 20.4884
lfoot -10.6804 4.84359
ltoes -12.5462
145
root 0.482864 17.5029 -14.349 6.49034 -0.263729 -1.97182
lowerback -1.36984 -0.675963 0.41706
upperback 4.95712 -1.01092 1.69925
thorax 5.92797 -0.527405 1.46524
lowerneck -11.3811 0.592752 -2.31269
upperneck 35.3062 1.22233 0.697023
head 13.8684 0.307278 0.869298
rclavicle -6.65929e-015 6.55989e-015
rhumerus -18.2969 -16.2832 -82.9001
rradius 25.7956
rwrist 31.9903
rhand -18.1694 -26.7454
rfingers 7.12502
rthumb 8.10684 -56.5699
lclavicle -6.65929e-015 6.55989e-015
lhumerus -15.8228 -0.72312 88.1785
lradius 18.6468
lwrist -0.150169
lhand -23.5632 -3.35202
lfingers 7.12502
lthumb 2.89925 26.608
rfemur -14.1629 -2.32682 19.1276
rtibia 21.6262
rfoot -13.2223 -2.32253
rtoes 4.95002
lfemur -14.4441 7.82431 -17.3359
ltibia 20.5365
lfoot -10.6971 4.84311
ltoes -12.5666
146
root 0.482017 17.5016 -14.3526 6.49541 -0.245663 -1.96883
lowerback -1.34229 -0.679742 0.413083
upperback 4.94895 -1.01543 1.70366
thorax 5.90377 -0.5299 1.47204
lowerneck -11.3926 0.595633 -2.31041
upperneck 35.2413 1.23037 0.684545
head 13.8417 0.310272 0.864517
rclavicle -1.78906e-015 -1.78906e-015
rhumerus -18.3055 -16.2583 -82.8902
rradius 25.787
rwrist 31.9864
rhand -18.1608 -26.74
rfingers 7.12502
rthumb 8.11513 -56.5642
lclavicle -1.78906e-015 -1.78906e-015
lhumerus -15.8361 -0.720432 88.1639
lradius 18.6274
lwrist -0.173844
lhand -23.5645 -3.37078
lfingers 7.12502
lthumb 2.89792 26.5893
rfemur -14.2043 -2.308 19.1272
rtibia 21.6762
rfoot -13.2381 -2.36214
rtoes 4.90141
lfemur -14.4941 7.8197 -17.3387
ltibia 20.5916
lfoot -10.7153 4.84171
ltoes -12.5961
147
root 0.481096 17.5001 -14.3561 6.49795 -0.227563 -1.96853
lowerback -1.31265 -0.683588 0.410146
upperback 4.94284 -1.02017 1.70964
thorax 5.88057 -0.532506 1.47991
lowerneck -11.4028 0.597919 -2.31206
upperneck 35.1729 1.23716 0.675839
head 13.8131 0.312746 0.861721
rclavicle -3.52843e-015 1.35174e-014
rhumerus -18.3118 -16.2312 -82.879
rradius 25.7774
rwrist 31.9821
rhand -18.1562 -26.7325
rfingers 7.12502
rthumb 8.11962 -56.5565
lclavicle -3.52843e-015 1.35174e-014
lhumerus -15.8474 -0.714171 88.1496
lradius 18.604
lwrist -0.201772
lhand -23.5696 -3.41361
lfingers 7.12502
lthumb 2.89303 26.5465
rfemur -14.2446 -2.28645 19.1302
rtibia 21.7282
rfoot -13.2523 -2.40609
rtoes 4.85041
lfemur -14.5456 7.81933 -17.3378
ltibia 20.6542
lfoot -10.7372 4.83435
ltoes -12.6168
148
root 0.480139 17.4986 -14.3596 6.49869 -0.210199 -1.97073
lowerback -1.28163 -0.686557 0.410025
upperback 4.93905 -1.02388 1.71569
thorax 5.85896 -0.534482 1.48634
lowerneck -11.419 0.600363 -2.31035
upperneck 35.1044 1.24367 0.666535
head 13.7859 0.315461 0.858106
rclavicle 9.98893e-015 5.1684e-015
rhumerus -18.3172 -16.202 -82.8682
rradius 25.7713
rwrist 31.9753
rhand -18.1554 -26.7251
rfingers 7.12502
rthumb 8.12033 -56.5491
lclavicle 9.98893e-015 5.1684e-015
lhumerus -15.8571 -0.704083 88.1344
lradius 18.5812
lwrist -0.230619
lhand -23.5678 -3.45072
lfingers 7.12502
lthumb 2.89475 26.5094
rfemur -14.2836 -2.26238 19.136
rtibia 21.7815
rfoot -13.2669 -2.45126
rtoes 4.81245
lfemur -14.5989 7.8219 -17.3337
ltibia 20.7246
lfoot -10.7626 4.82459
ltoes -12.6272
149
root 0.479154 17.497 -14.3633 6.49833 -0.193701 -1.97438
lowerback -1.2487 -0.688887 0.411287
upperback 4.93652 -1.02678 1.72159
thorax 5.83755 -0.535991 1.49193
lowerneck -11.4412 0.603844 -2.30383
upperneck 35.0384 1.25151 0.654749
head 13.7613 0.319013 0.852919
rclavicle 6.11263e-015 6.75868e-015
rhumerus -18.3226 -16.1687 -82.8577
rradius 25.7684
rwrist 31.9621
rhand -18.1586 -26.7204
rfingers 7.12502
rthumb 8.11728 -56.5445
lclavicle 6.11263e-015 6.75868e-015
lhumerus -15.8668 -0.699509 88.1189
lradius 18.5589
lwrist -0.255979
lhand -23.5692 -3.48011
lfingers 7.12502
lthumb 2.8934 26.48
rfemur -14.3225 -2.23758 19.1437
rtibia 21.8362
rfoot -13.2815 -2.49558
rtoes 4.78231
lfemur -14.6545 7.82644 -17.3275
ltibia 20.8015
lfoot -10.7915 4.81192
ltoes -12.6214
150
root 0.478153 17.4953 -14.3669 6.49866 -0.174819 -1.98239
lowerback -1.21529 -0.691326 0.417895
upperback 4.93478 -1.0301 1.72832
thorax 5.81663 -0.53748 1.49535
lowerneck -11.4687 0.607888 -2.29447
upperneck 34.9741 1.26054 0.640349
head 13.7387 0.32308 0.84643
rclavicle -4.47266e-016 1.19271e-015
rhumerus -18.3285 -16.1336 -82.8465
rradius 25.7696
rwrist 31.9478
rhand -18.1611 -26.7208
rfingers 7.12502
rthumb 8.11483 -56.545
lclavicle -4.47266e-016 1.19271e-015
lhumerus -15.8772 -0.697214 88.1032
lradius 18.5379
lwrist -0.281441
lhand -23.5794 -3.51538
lfingers 7.12502
lthumb 2.88354 26.4449
rfemur -14.3621 -2.21434 19.1563
rtibia 21.8921
rfoot -13.2968 -2.53773
rtoes 4.76957
lfemur -14.7142 7.83269 -17.3166
ltibia 20.8839
lfoot -10.8236 4.79798
ltoes -12.6151
151
root 0.4772 17.4936 -14.3706 6.50062 -0.152885 -1.99018
lowerback -1.18343 -0.694472 0.425863
upperback 4.9335 -1.0344 1.73426
thorax 5.79707 -0.539375 1.49712
lowerneck -11.5003 0.612175 -2.28102
upperneck 34.9118 1.27005 0.622807
head 13.7179 0.32745 0.838094
rclavicle 5.76476e-015 -2.28602e-014
rhumerus -18.3335 -16.0982 -82.8353
rradius 25.7716
rwrist 31.9314
rhand -18.1632 -26.73
rfingers 7.12502
rthumb 8.11284 -56.5542
lclavicle 5.76476e-015 -2.28602e-014
lhumerus -15.8877 -0.695505 88.0867
lradius 18.5209
lwrist -0.302205
lhand -23.5794 -3.52562
lfingers 7.12502
lthumb 2.88351 26.4346
rfemur -14.4028 -2.19602 19.1687
rtibia 21.9486
rfoot -13.3133 -2.5763
rtoes 4.76763
lfemur -14.7782 7.83725 -17.3063
ltibia 20.9707
lfoot -10.8587 4.78439
ltoes -12.608
152
root 0.476289 17.492 -14.3742 6.50422 -0.127067 -1.99929
lowerback -1.15228 -0.698296 0.437374
upperback 4.93123 -1.03971 1.73959
thorax 5.77683 -0.541581 1.4962
lowerneck -11.5333 0.615439 -2.2662
upperneck 34.8538 1.27783 0.605117
head 13.6995 0.331162 0.82927
rclavicle 1.09829e-014 -7.55382e-015
rhumerus -18.3416 -16.0635 -82.8232
rradius 25.7777
rwrist 31.9126
rhand -18.1633 -26.7416
rfingers 7.12502
rthumb 8.11271 -56.5659
lclavicle 1.09829e-014 -7.55382e-015
lhumerus -15.901 -0.698992 88.0699
lradius 18.5064
lwrist -0.316313
lhand -23.5809 -3.52641
lfingers 7.12502
lthumb 2.88213 26.4339
rfemur -14.444 -2.18247 19.1825
rtibia 22.0049
rfoot -13.3302 -2.61233
rtoes 4.76859
lfemur -14.8462 7.83996 -17.295
ltibia 21.061
lfoot -10.8971 4.77246
ltoes -12.6047
153
root 0.47543 17.4903 -14.3778 6.50971 -0.0980685 -2.00907
lowerback -1.12416 -0.703381 0.450313
upperback 4.92876 -1.04682 1.74536
thorax 5.75815 -0.544626 1.4948
lowerneck -11.5625 0.618024 -2.25533
upperneck 34.7954 1.28447 0.590354
head 13.6801 0.334258 0.822122
rclavicle -1.14798e-014 1.86858e-014
rhumerus -18.352 -16.0239 -82.8101
rradius 25.7885
rwrist 31.8873
rhand -18.1596 -26.7599
rfingers 7.12502
rthumb 8.11631 -56.584
lclavicle -1.14798e-014 1.86858e-014
lhumerus -15.9143 -0.698989 88.0534
lradius 18.4935
lwrist -0.326637
lhand -23.5751 -3.51088
lfingers 7.12502
lthumb 2.88767 26.4493
rfemur -14.4866 -2.17448 19.1969
rtibia 22.0606
rfoot -13.3467 -2.6455
rtoes 4.76476
lfemur -14.9177 7.84068 -17.2834
ltibia 21.1535
lfoot -10.9366 4.7613
ltoes -12.6073
